<mxfile host="app.diagrams.net" modified="2021-09-26T08:03:53.915Z" agent="5.0 (Windows NT 10.0; Win64; x64) AppleWebKit/537.36 (KHTML, like Gecko) Chrome/93.0.4577.82 Safari/537.36" etag="kyYJxJuzhZGX8OwmynBc" version="15.3.3" type="github">
  <diagram id="XMyp1LrM_B54jQ6VPfjc" name="Page-1">
    <mxGraphModel dx="3128" dy="1744" grid="1" gridSize="10" guides="1" tooltips="1" connect="1" arrows="1" fold="1" page="1" pageScale="1" pageWidth="3300" pageHeight="4681" math="0" shadow="0">
      <root>
        <mxCell id="0" />
        <mxCell id="1" parent="0" />
        <mxCell id="nksuaNwJPS0nM7EoXHVq-1" value="메인페이지" style="rounded=1;whiteSpace=wrap;html=1;hachureGap=4;pointerEvents=0;" parent="1" vertex="1">
          <mxGeometry x="1545" y="90" width="120" height="60" as="geometry" />
        </mxCell>
        <mxCell id="nksuaNwJPS0nM7EoXHVq-5" value="" style="endArrow=none;html=1;startSize=14;endSize=14;sourcePerimeterSpacing=8;targetPerimeterSpacing=8;entryX=0.5;entryY=1;entryDx=0;entryDy=0;" parent="1" target="nksuaNwJPS0nM7EoXHVq-1" edge="1">
          <mxGeometry width="50" height="50" relative="1" as="geometry">
            <mxPoint x="1605" y="270" as="sourcePoint" />
            <mxPoint x="1625" y="280" as="targetPoint" />
          </mxGeometry>
        </mxCell>
        <mxCell id="nksuaNwJPS0nM7EoXHVq-6" value="" style="endArrow=none;html=1;startSize=14;endSize=14;sourcePerimeterSpacing=8;targetPerimeterSpacing=8;" parent="1" edge="1">
          <mxGeometry width="50" height="50" relative="1" as="geometry">
            <mxPoint x="520" y="270" as="sourcePoint" />
            <mxPoint x="1010" y="270" as="targetPoint" />
          </mxGeometry>
        </mxCell>
        <mxCell id="nksuaNwJPS0nM7EoXHVq-7" value="" style="endArrow=none;html=1;startSize=14;endSize=14;sourcePerimeterSpacing=8;targetPerimeterSpacing=8;" parent="1" edge="1">
          <mxGeometry width="50" height="50" relative="1" as="geometry">
            <mxPoint x="1010" y="270" as="sourcePoint" />
            <mxPoint x="2690" y="270" as="targetPoint" />
          </mxGeometry>
        </mxCell>
        <mxCell id="nksuaNwJPS0nM7EoXHVq-8" value="" style="endArrow=classic;html=1;startSize=14;endSize=14;sourcePerimeterSpacing=8;targetPerimeterSpacing=8;" parent="1" edge="1">
          <mxGeometry width="50" height="50" relative="1" as="geometry">
            <mxPoint x="520" y="270" as="sourcePoint" />
            <mxPoint x="520" y="370" as="targetPoint" />
          </mxGeometry>
        </mxCell>
        <mxCell id="nksuaNwJPS0nM7EoXHVq-9" value="소셜링" style="rounded=0;whiteSpace=wrap;html=1;hachureGap=4;pointerEvents=0;" parent="1" vertex="1">
          <mxGeometry x="460" y="370" width="120" height="60" as="geometry" />
        </mxCell>
        <mxCell id="nksuaNwJPS0nM7EoXHVq-15" value="전체 소셜링&lt;br&gt;목록" style="rounded=0;whiteSpace=wrap;html=1;hachureGap=4;pointerEvents=0;" parent="1" vertex="1">
          <mxGeometry x="460" y="670" width="120" height="60" as="geometry" />
        </mxCell>
        <mxCell id="nksuaNwJPS0nM7EoXHVq-16" value="시작임박 소셜링&lt;br&gt;목록" style="rounded=0;whiteSpace=wrap;html=1;hachureGap=4;pointerEvents=0;" parent="1" vertex="1">
          <mxGeometry x="460" y="1060" width="120" height="60" as="geometry" />
        </mxCell>
        <mxCell id="nksuaNwJPS0nM7EoXHVq-18" value="" style="endArrow=classic;html=1;startSize=14;endSize=14;sourcePerimeterSpacing=8;targetPerimeterSpacing=8;entryX=0.5;entryY=0;entryDx=0;entryDy=0;" parent="1" edge="1">
          <mxGeometry width="50" height="50" relative="1" as="geometry">
            <mxPoint x="520" y="430" as="sourcePoint" />
            <mxPoint x="520" y="510" as="targetPoint" />
          </mxGeometry>
        </mxCell>
        <mxCell id="nksuaNwJPS0nM7EoXHVq-19" value="" style="endArrow=classic;html=1;startSize=14;endSize=14;sourcePerimeterSpacing=8;targetPerimeterSpacing=8;exitX=0.5;exitY=1;exitDx=0;exitDy=0;" parent="1" edge="1">
          <mxGeometry width="50" height="50" relative="1" as="geometry">
            <mxPoint x="520" y="570" as="sourcePoint" />
            <mxPoint x="520" y="670" as="targetPoint" />
          </mxGeometry>
        </mxCell>
        <mxCell id="nksuaNwJPS0nM7EoXHVq-20" value="시작 날짜가 2일 이내&lt;br&gt;입니까?" style="rhombus;whiteSpace=wrap;html=1;hachureGap=4;pointerEvents=0;" parent="1" vertex="1">
          <mxGeometry x="391.25" y="880" width="257.5" height="80" as="geometry" />
        </mxCell>
        <mxCell id="nksuaNwJPS0nM7EoXHVq-21" value="" style="endArrow=classic;html=1;startSize=14;endSize=14;sourcePerimeterSpacing=8;targetPerimeterSpacing=8;exitX=0.5;exitY=1;exitDx=0;exitDy=0;" parent="1" source="nksuaNwJPS0nM7EoXHVq-20" edge="1">
          <mxGeometry width="50" height="50" relative="1" as="geometry">
            <mxPoint x="550" y="1050" as="sourcePoint" />
            <mxPoint x="520" y="1060" as="targetPoint" />
          </mxGeometry>
        </mxCell>
        <mxCell id="nksuaNwJPS0nM7EoXHVq-22" value="글쓰기" style="rounded=0;whiteSpace=wrap;html=1;hachureGap=4;pointerEvents=0;" parent="1" vertex="1">
          <mxGeometry x="460" y="510" width="120" height="60" as="geometry" />
        </mxCell>
        <mxCell id="nksuaNwJPS0nM7EoXHVq-24" value="Yes" style="text;html=1;strokeColor=none;fillColor=none;align=center;verticalAlign=middle;whiteSpace=wrap;rounded=0;hachureGap=4;pointerEvents=0;" parent="1" vertex="1">
          <mxGeometry x="530" y="970" width="40" height="20" as="geometry" />
        </mxCell>
        <mxCell id="nksuaNwJPS0nM7EoXHVq-25" value="No" style="text;html=1;strokeColor=none;fillColor=none;align=center;verticalAlign=middle;whiteSpace=wrap;rounded=0;hachureGap=4;pointerEvents=0;" parent="1" vertex="1">
          <mxGeometry x="660" y="890" width="40" height="20" as="geometry" />
        </mxCell>
        <mxCell id="nksuaNwJPS0nM7EoXHVq-31" value="" style="endArrow=none;html=1;startSize=14;endSize=14;sourcePerimeterSpacing=8;targetPerimeterSpacing=8;exitX=1;exitY=0.5;exitDx=0;exitDy=0;" parent="1" source="nksuaNwJPS0nM7EoXHVq-20" edge="1">
          <mxGeometry width="50" height="50" relative="1" as="geometry">
            <mxPoint x="630" y="850" as="sourcePoint" />
            <mxPoint x="730" y="920" as="targetPoint" />
          </mxGeometry>
        </mxCell>
        <mxCell id="nksuaNwJPS0nM7EoXHVq-32" value="" style="endArrow=none;html=1;startSize=14;endSize=14;sourcePerimeterSpacing=8;targetPerimeterSpacing=8;" parent="1" edge="1">
          <mxGeometry width="50" height="50" relative="1" as="geometry">
            <mxPoint x="730" y="920" as="sourcePoint" />
            <mxPoint x="730" y="700" as="targetPoint" />
          </mxGeometry>
        </mxCell>
        <mxCell id="nksuaNwJPS0nM7EoXHVq-33" value="" style="endArrow=classic;html=1;startSize=14;endSize=14;sourcePerimeterSpacing=8;targetPerimeterSpacing=8;entryX=1;entryY=0.5;entryDx=0;entryDy=0;" parent="1" target="nksuaNwJPS0nM7EoXHVq-15" edge="1">
          <mxGeometry width="50" height="50" relative="1" as="geometry">
            <mxPoint x="730" y="700" as="sourcePoint" />
            <mxPoint x="780" y="700" as="targetPoint" />
          </mxGeometry>
        </mxCell>
        <mxCell id="nksuaNwJPS0nM7EoXHVq-34" value="" style="endArrow=classic;html=1;startSize=14;endSize=14;sourcePerimeterSpacing=8;targetPerimeterSpacing=8;exitX=0.5;exitY=1;exitDx=0;exitDy=0;entryX=0.5;entryY=0;entryDx=0;entryDy=0;" parent="1" source="nksuaNwJPS0nM7EoXHVq-15" target="nksuaNwJPS0nM7EoXHVq-20" edge="1">
          <mxGeometry width="50" height="50" relative="1" as="geometry">
            <mxPoint x="520" y="940" as="sourcePoint" />
            <mxPoint x="570" y="890" as="targetPoint" />
          </mxGeometry>
        </mxCell>
        <mxCell id="nksuaNwJPS0nM7EoXHVq-36" value="" style="endArrow=none;html=1;startSize=14;endSize=14;sourcePerimeterSpacing=8;targetPerimeterSpacing=8;exitX=0;exitY=0.5;exitDx=0;exitDy=0;" parent="1" source="nksuaNwJPS0nM7EoXHVq-15" edge="1">
          <mxGeometry width="50" height="50" relative="1" as="geometry">
            <mxPoint x="389.28932188134524" y="750" as="sourcePoint" />
            <mxPoint x="290" y="700" as="targetPoint" />
          </mxGeometry>
        </mxCell>
        <mxCell id="nksuaNwJPS0nM7EoXHVq-37" value="" style="endArrow=none;html=1;startSize=14;endSize=14;sourcePerimeterSpacing=8;targetPerimeterSpacing=8;exitX=0;exitY=0.5;exitDx=0;exitDy=0;" parent="1" edge="1">
          <mxGeometry width="50" height="50" relative="1" as="geometry">
            <mxPoint x="460" y="1089.29" as="sourcePoint" />
            <mxPoint x="290" y="1089.29" as="targetPoint" />
          </mxGeometry>
        </mxCell>
        <mxCell id="nksuaNwJPS0nM7EoXHVq-39" value="" style="endArrow=none;html=1;startSize=14;endSize=14;sourcePerimeterSpacing=8;targetPerimeterSpacing=8;" parent="1" edge="1">
          <mxGeometry width="50" height="50" relative="1" as="geometry">
            <mxPoint x="290" y="1090" as="sourcePoint" />
            <mxPoint x="290" y="700" as="targetPoint" />
          </mxGeometry>
        </mxCell>
        <mxCell id="nksuaNwJPS0nM7EoXHVq-40" value="" style="endArrow=classic;html=1;startSize=14;endSize=14;sourcePerimeterSpacing=8;targetPerimeterSpacing=8;" parent="1" edge="1">
          <mxGeometry width="50" height="50" relative="1" as="geometry">
            <mxPoint x="290" y="1090" as="sourcePoint" />
            <mxPoint x="290" y="1210" as="targetPoint" />
          </mxGeometry>
        </mxCell>
        <mxCell id="nksuaNwJPS0nM7EoXHVq-41" value="상세페이지" style="rounded=0;whiteSpace=wrap;html=1;hachureGap=4;pointerEvents=0;" parent="1" vertex="1">
          <mxGeometry x="230" y="1210" width="120" height="60" as="geometry" />
        </mxCell>
        <mxCell id="nksuaNwJPS0nM7EoXHVq-42" value="" style="endArrow=classic;html=1;startSize=14;endSize=14;sourcePerimeterSpacing=8;targetPerimeterSpacing=8;exitX=0.5;exitY=1;exitDx=0;exitDy=0;" parent="1" source="nksuaNwJPS0nM7EoXHVq-41" edge="1">
          <mxGeometry width="50" height="50" relative="1" as="geometry">
            <mxPoint x="290" y="1320" as="sourcePoint" />
            <mxPoint x="290" y="1340.7106781186549" as="targetPoint" />
          </mxGeometry>
        </mxCell>
        <mxCell id="nksuaNwJPS0nM7EoXHVq-43" value="소셜링 참여하기" style="rounded=0;whiteSpace=wrap;html=1;hachureGap=4;pointerEvents=0;" parent="1" vertex="1">
          <mxGeometry x="230" y="1340" width="120" height="60" as="geometry" />
        </mxCell>
        <mxCell id="nksuaNwJPS0nM7EoXHVq-44" value="" style="endArrow=classic;html=1;startSize=14;endSize=14;sourcePerimeterSpacing=8;targetPerimeterSpacing=8;exitX=0.5;exitY=1;exitDx=0;exitDy=0;" parent="1" source="nksuaNwJPS0nM7EoXHVq-43" edge="1">
          <mxGeometry width="50" height="50" relative="1" as="geometry">
            <mxPoint x="290" y="1450" as="sourcePoint" />
            <mxPoint x="290" y="1470.7106781186549" as="targetPoint" />
          </mxGeometry>
        </mxCell>
        <mxCell id="nksuaNwJPS0nM7EoXHVq-45" value="참여하시겠습니까?" style="rhombus;whiteSpace=wrap;html=1;hachureGap=4;pointerEvents=0;" parent="1" vertex="1">
          <mxGeometry x="202.5" y="1470" width="175" height="80" as="geometry" />
        </mxCell>
        <mxCell id="nksuaNwJPS0nM7EoXHVq-46" value="" style="endArrow=classic;html=1;startSize=14;endSize=14;sourcePerimeterSpacing=8;targetPerimeterSpacing=8;exitX=0.5;exitY=1;exitDx=0;exitDy=0;exitPerimeter=0;" parent="1" source="nksuaNwJPS0nM7EoXHVq-45" edge="1">
          <mxGeometry width="50" height="50" relative="1" as="geometry">
            <mxPoint x="290" y="1600" as="sourcePoint" />
            <mxPoint x="290" y="1620.7106781186549" as="targetPoint" />
          </mxGeometry>
        </mxCell>
        <mxCell id="nksuaNwJPS0nM7EoXHVq-49" value="" style="endArrow=classic;html=1;startSize=14;endSize=14;sourcePerimeterSpacing=8;targetPerimeterSpacing=8;exitX=1;exitY=0.5;exitDx=0;exitDy=0;" parent="1" source="nksuaNwJPS0nM7EoXHVq-45" edge="1">
          <mxGeometry width="50" height="50" relative="1" as="geometry">
            <mxPoint x="377.5" y="1560" as="sourcePoint" />
            <mxPoint x="448.21067811865476" y="1510" as="targetPoint" />
          </mxGeometry>
        </mxCell>
        <mxCell id="nksuaNwJPS0nM7EoXHVq-50" value="참여가&lt;br&gt;완료되었습니다." style="rounded=0;whiteSpace=wrap;html=1;hachureGap=4;pointerEvents=0;" parent="1" vertex="1">
          <mxGeometry x="230" y="1620" width="120" height="60" as="geometry" />
        </mxCell>
        <mxCell id="nksuaNwJPS0nM7EoXHVq-51" value="상세페이지" style="rounded=0;whiteSpace=wrap;html=1;hachureGap=4;pointerEvents=0;" parent="1" vertex="1">
          <mxGeometry x="450" y="1480" width="120" height="60" as="geometry" />
        </mxCell>
        <mxCell id="nksuaNwJPS0nM7EoXHVq-52" value="Yes" style="text;html=1;strokeColor=none;fillColor=none;align=center;verticalAlign=middle;whiteSpace=wrap;rounded=0;hachureGap=4;pointerEvents=0;" parent="1" vertex="1">
          <mxGeometry x="300" y="1560" width="40" height="20" as="geometry" />
        </mxCell>
        <mxCell id="nksuaNwJPS0nM7EoXHVq-53" value="No" style="text;html=1;strokeColor=none;fillColor=none;align=center;verticalAlign=middle;whiteSpace=wrap;rounded=0;hachureGap=4;pointerEvents=0;" parent="1" vertex="1">
          <mxGeometry x="370" y="1480" width="40" height="20" as="geometry" />
        </mxCell>
        <mxCell id="nksuaNwJPS0nM7EoXHVq-54" value="" style="endArrow=classic;html=1;startSize=14;endSize=14;sourcePerimeterSpacing=8;targetPerimeterSpacing=8;" parent="1" edge="1">
          <mxGeometry width="50" height="50" relative="1" as="geometry">
            <mxPoint x="1515" y="270" as="sourcePoint" />
            <mxPoint x="1515" y="370" as="targetPoint" />
          </mxGeometry>
        </mxCell>
        <mxCell id="nksuaNwJPS0nM7EoXHVq-57" value="마이페이지" style="rounded=0;whiteSpace=wrap;html=1;hachureGap=4;pointerEvents=0;" parent="1" vertex="1">
          <mxGeometry x="1455" y="370" width="120" height="60" as="geometry" />
        </mxCell>
        <mxCell id="nksuaNwJPS0nM7EoXHVq-58" value="" style="endArrow=classic;html=1;startSize=14;endSize=14;sourcePerimeterSpacing=8;targetPerimeterSpacing=8;exitX=0.5;exitY=1;exitDx=0;exitDy=0;" parent="1" source="nksuaNwJPS0nM7EoXHVq-57" edge="1">
          <mxGeometry width="50" height="50" relative="1" as="geometry">
            <mxPoint x="1515" y="480" as="sourcePoint" />
            <mxPoint x="1515" y="500.71067811865476" as="targetPoint" />
          </mxGeometry>
        </mxCell>
        <mxCell id="nksuaNwJPS0nM7EoXHVq-59" value="알림" style="rounded=0;whiteSpace=wrap;html=1;hachureGap=4;pointerEvents=0;" parent="1" vertex="1">
          <mxGeometry x="1455" y="500" width="120" height="60" as="geometry" />
        </mxCell>
        <mxCell id="nksuaNwJPS0nM7EoXHVq-62" value="" style="endArrow=none;html=1;startSize=14;endSize=14;sourcePerimeterSpacing=8;targetPerimeterSpacing=8;exitX=0.5;exitY=1;exitDx=0;exitDy=0;" parent="1" source="nksuaNwJPS0nM7EoXHVq-59" edge="1">
          <mxGeometry width="50" height="50" relative="1" as="geometry">
            <mxPoint x="1525" y="530" as="sourcePoint" />
            <mxPoint x="1515" y="660" as="targetPoint" />
          </mxGeometry>
        </mxCell>
        <mxCell id="nksuaNwJPS0nM7EoXHVq-63" value="" style="endArrow=none;html=1;startSize=14;endSize=14;sourcePerimeterSpacing=8;targetPerimeterSpacing=8;" parent="1" edge="1">
          <mxGeometry width="50" height="50" relative="1" as="geometry">
            <mxPoint x="1035" y="660" as="sourcePoint" />
            <mxPoint x="1975" y="660" as="targetPoint" />
          </mxGeometry>
        </mxCell>
        <mxCell id="nksuaNwJPS0nM7EoXHVq-64" value="" style="endArrow=classic;html=1;startSize=14;endSize=14;sourcePerimeterSpacing=8;targetPerimeterSpacing=8;" parent="1" edge="1">
          <mxGeometry width="50" height="50" relative="1" as="geometry">
            <mxPoint x="1035" y="660" as="sourcePoint" />
            <mxPoint x="1035" y="770" as="targetPoint" />
          </mxGeometry>
        </mxCell>
        <mxCell id="nksuaNwJPS0nM7EoXHVq-65" value="시작 날짜가 2일 남은&lt;br&gt;소셜링/클래스 일정이 있습니까?" style="rhombus;whiteSpace=wrap;html=1;hachureGap=4;pointerEvents=0;" parent="1" vertex="1">
          <mxGeometry x="915" y="770" width="240" height="80" as="geometry" />
        </mxCell>
        <mxCell id="nksuaNwJPS0nM7EoXHVq-66" value="" style="endArrow=classic;html=1;startSize=14;endSize=14;sourcePerimeterSpacing=8;targetPerimeterSpacing=8;exitX=0.5;exitY=1;exitDx=0;exitDy=0;" parent="1" edge="1">
          <mxGeometry width="50" height="50" relative="1" as="geometry">
            <mxPoint x="1035" y="850" as="sourcePoint" />
            <mxPoint x="1035" y="920.7106781186548" as="targetPoint" />
          </mxGeometry>
        </mxCell>
        <mxCell id="nksuaNwJPS0nM7EoXHVq-67" value="시작 임박 소셜링/클래스&lt;br&gt;알림 출력" style="rounded=0;whiteSpace=wrap;html=1;hachureGap=4;pointerEvents=0;" parent="1" vertex="1">
          <mxGeometry x="960" y="920" width="150" height="60" as="geometry" />
        </mxCell>
        <mxCell id="nksuaNwJPS0nM7EoXHVq-68" value="" style="endArrow=classic;html=1;startSize=14;endSize=14;sourcePerimeterSpacing=8;targetPerimeterSpacing=8;" parent="1" edge="1">
          <mxGeometry width="50" height="50" relative="1" as="geometry">
            <mxPoint x="1345" y="660" as="sourcePoint" />
            <mxPoint x="1345" y="770" as="targetPoint" />
          </mxGeometry>
        </mxCell>
        <mxCell id="nksuaNwJPS0nM7EoXHVq-69" value="결제 완료된&lt;br&gt;클래스가 있습니까?" style="rhombus;whiteSpace=wrap;html=1;hachureGap=4;pointerEvents=0;" parent="1" vertex="1">
          <mxGeometry x="1245" y="770" width="200" height="80" as="geometry" />
        </mxCell>
        <mxCell id="nksuaNwJPS0nM7EoXHVq-70" value="" style="endArrow=classic;html=1;startSize=14;endSize=14;sourcePerimeterSpacing=8;targetPerimeterSpacing=8;exitX=0.5;exitY=1;exitDx=0;exitDy=0;" parent="1" source="nksuaNwJPS0nM7EoXHVq-69" edge="1">
          <mxGeometry width="50" height="50" relative="1" as="geometry">
            <mxPoint x="1345" y="900" as="sourcePoint" />
            <mxPoint x="1345" y="920.7106781186549" as="targetPoint" />
          </mxGeometry>
        </mxCell>
        <mxCell id="nksuaNwJPS0nM7EoXHVq-71" value="결제 완료 알림&lt;br&gt;출력" style="rounded=0;whiteSpace=wrap;html=1;hachureGap=4;pointerEvents=0;" parent="1" vertex="1">
          <mxGeometry x="1285" y="920" width="120" height="60" as="geometry" />
        </mxCell>
        <mxCell id="nksuaNwJPS0nM7EoXHVq-72" value="" style="endArrow=classic;html=1;startSize=14;endSize=14;sourcePerimeterSpacing=8;targetPerimeterSpacing=8;" parent="1" edge="1">
          <mxGeometry width="50" height="50" relative="1" as="geometry">
            <mxPoint x="1645" y="660" as="sourcePoint" />
            <mxPoint x="1645" y="770" as="targetPoint" />
          </mxGeometry>
        </mxCell>
        <mxCell id="nksuaNwJPS0nM7EoXHVq-73" value="참여 완료한&lt;br&gt;클래스가 있습니까?" style="rhombus;whiteSpace=wrap;html=1;hachureGap=4;pointerEvents=0;" parent="1" vertex="1">
          <mxGeometry x="1533.75" y="770" width="222.5" height="80" as="geometry" />
        </mxCell>
        <mxCell id="nksuaNwJPS0nM7EoXHVq-74" value="" style="endArrow=classic;html=1;startSize=14;endSize=14;sourcePerimeterSpacing=8;targetPerimeterSpacing=8;exitX=0.5;exitY=1;exitDx=0;exitDy=0;" parent="1" source="nksuaNwJPS0nM7EoXHVq-73" edge="1">
          <mxGeometry width="50" height="50" relative="1" as="geometry">
            <mxPoint x="1645" y="900" as="sourcePoint" />
            <mxPoint x="1645" y="920.7106781186549" as="targetPoint" />
          </mxGeometry>
        </mxCell>
        <mxCell id="nksuaNwJPS0nM7EoXHVq-75" value="클래스 후기 작성&lt;br&gt;알림 출력" style="rounded=0;whiteSpace=wrap;html=1;hachureGap=4;pointerEvents=0;" parent="1" vertex="1">
          <mxGeometry x="1585" y="920" width="120" height="60" as="geometry" />
        </mxCell>
        <mxCell id="nksuaNwJPS0nM7EoXHVq-76" value="" style="endArrow=classic;html=1;startSize=14;endSize=14;sourcePerimeterSpacing=8;targetPerimeterSpacing=8;" parent="1" edge="1">
          <mxGeometry width="50" height="50" relative="1" as="geometry">
            <mxPoint x="1975" y="660" as="sourcePoint" />
            <mxPoint x="1975" y="770" as="targetPoint" />
          </mxGeometry>
        </mxCell>
        <mxCell id="nksuaNwJPS0nM7EoXHVq-77" value="새로 등록된&lt;br&gt;공지사항이 있습니까?" style="rhombus;whiteSpace=wrap;html=1;hachureGap=4;pointerEvents=0;" parent="1" vertex="1">
          <mxGeometry x="1875" y="770" width="200" height="80" as="geometry" />
        </mxCell>
        <mxCell id="nksuaNwJPS0nM7EoXHVq-78" value="" style="endArrow=classic;html=1;startSize=14;endSize=14;sourcePerimeterSpacing=8;targetPerimeterSpacing=8;exitX=0.5;exitY=1;exitDx=0;exitDy=0;" parent="1" source="nksuaNwJPS0nM7EoXHVq-77" edge="1">
          <mxGeometry width="50" height="50" relative="1" as="geometry">
            <mxPoint x="1975" y="900" as="sourcePoint" />
            <mxPoint x="1975" y="920.7106781186549" as="targetPoint" />
          </mxGeometry>
        </mxCell>
        <mxCell id="nksuaNwJPS0nM7EoXHVq-79" value="공지사항 알림&lt;br&gt;출력" style="rounded=0;whiteSpace=wrap;html=1;hachureGap=4;pointerEvents=0;" parent="1" vertex="1">
          <mxGeometry x="1915" y="920" width="120" height="60" as="geometry" />
        </mxCell>
        <mxCell id="nksuaNwJPS0nM7EoXHVq-80" value="Yes" style="text;html=1;strokeColor=none;fillColor=none;align=center;verticalAlign=middle;whiteSpace=wrap;rounded=0;hachureGap=4;pointerEvents=0;" parent="1" vertex="1">
          <mxGeometry x="1050" y="850" width="40" height="20" as="geometry" />
        </mxCell>
        <mxCell id="nksuaNwJPS0nM7EoXHVq-81" value="Yes" style="text;html=1;strokeColor=none;fillColor=none;align=center;verticalAlign=middle;whiteSpace=wrap;rounded=0;hachureGap=4;pointerEvents=0;" parent="1" vertex="1">
          <mxGeometry x="1360" y="850" width="40" height="20" as="geometry" />
        </mxCell>
        <mxCell id="nksuaNwJPS0nM7EoXHVq-83" value="Yes" style="text;html=1;strokeColor=none;fillColor=none;align=center;verticalAlign=middle;whiteSpace=wrap;rounded=0;hachureGap=4;pointerEvents=0;" parent="1" vertex="1">
          <mxGeometry x="1665" y="850" width="40" height="20" as="geometry" />
        </mxCell>
        <mxCell id="nksuaNwJPS0nM7EoXHVq-84" value="Yes" style="text;html=1;strokeColor=none;fillColor=none;align=center;verticalAlign=middle;whiteSpace=wrap;rounded=0;hachureGap=4;pointerEvents=0;" parent="1" vertex="1">
          <mxGeometry x="1990" y="850" width="40" height="20" as="geometry" />
        </mxCell>
        <mxCell id="nksuaNwJPS0nM7EoXHVq-85" value="" style="endArrow=classic;html=1;startSize=14;endSize=14;sourcePerimeterSpacing=8;targetPerimeterSpacing=8;" parent="1" edge="1">
          <mxGeometry width="50" height="50" relative="1" as="geometry">
            <mxPoint x="2690" y="270" as="sourcePoint" />
            <mxPoint x="2690" y="370" as="targetPoint" />
          </mxGeometry>
        </mxCell>
        <mxCell id="nksuaNwJPS0nM7EoXHVq-86" value="매출 관리" style="rounded=0;whiteSpace=wrap;html=1;hachureGap=4;pointerEvents=0;" parent="1" vertex="1">
          <mxGeometry x="2630" y="370" width="120" height="60" as="geometry" />
        </mxCell>
        <mxCell id="nksuaNwJPS0nM7EoXHVq-87" value="" style="endArrow=classic;html=1;startSize=14;endSize=14;sourcePerimeterSpacing=8;targetPerimeterSpacing=8;exitX=0.5;exitY=1;exitDx=0;exitDy=0;" parent="1" edge="1">
          <mxGeometry width="50" height="50" relative="1" as="geometry">
            <mxPoint x="2690" y="430" as="sourcePoint" />
            <mxPoint x="2690" y="500.71067811865487" as="targetPoint" />
          </mxGeometry>
        </mxCell>
        <mxCell id="nksuaNwJPS0nM7EoXHVq-88" value="매출조회" style="rounded=0;whiteSpace=wrap;html=1;hachureGap=4;pointerEvents=0;" parent="1" vertex="1">
          <mxGeometry x="2630" y="500" width="120" height="60" as="geometry" />
        </mxCell>
        <mxCell id="nksuaNwJPS0nM7EoXHVq-89" value="" style="endArrow=none;html=1;startSize=14;endSize=14;sourcePerimeterSpacing=8;targetPerimeterSpacing=8;entryX=0.5;entryY=1;entryDx=0;entryDy=0;" parent="1" target="nksuaNwJPS0nM7EoXHVq-88" edge="1">
          <mxGeometry width="50" height="50" relative="1" as="geometry">
            <mxPoint x="2690" y="620" as="sourcePoint" />
            <mxPoint x="2720" y="630" as="targetPoint" />
          </mxGeometry>
        </mxCell>
        <mxCell id="nksuaNwJPS0nM7EoXHVq-90" value="" style="endArrow=none;html=1;startSize=14;endSize=14;sourcePerimeterSpacing=8;targetPerimeterSpacing=8;" parent="1" edge="1">
          <mxGeometry width="50" height="50" relative="1" as="geometry">
            <mxPoint x="2410" y="620" as="sourcePoint" />
            <mxPoint x="2960" y="620" as="targetPoint" />
          </mxGeometry>
        </mxCell>
        <mxCell id="nksuaNwJPS0nM7EoXHVq-91" value="" style="endArrow=classic;html=1;startSize=14;endSize=14;sourcePerimeterSpacing=8;targetPerimeterSpacing=8;" parent="1" edge="1">
          <mxGeometry width="50" height="50" relative="1" as="geometry">
            <mxPoint x="2410" y="620" as="sourcePoint" />
            <mxPoint x="2410" y="700" as="targetPoint" />
          </mxGeometry>
        </mxCell>
        <mxCell id="nksuaNwJPS0nM7EoXHVq-92" value="총 매출액" style="rounded=0;whiteSpace=wrap;html=1;hachureGap=4;pointerEvents=0;" parent="1" vertex="1">
          <mxGeometry x="2350" y="700" width="120" height="60" as="geometry" />
        </mxCell>
        <mxCell id="nksuaNwJPS0nM7EoXHVq-93" value="" style="endArrow=classic;html=1;startSize=14;endSize=14;sourcePerimeterSpacing=8;targetPerimeterSpacing=8;" parent="1" edge="1">
          <mxGeometry width="50" height="50" relative="1" as="geometry">
            <mxPoint x="2959.9999999999995" y="620" as="sourcePoint" />
            <mxPoint x="2959.9999999999995" y="700" as="targetPoint" />
          </mxGeometry>
        </mxCell>
        <mxCell id="nksuaNwJPS0nM7EoXHVq-94" value="결제 건수" style="rounded=0;whiteSpace=wrap;html=1;hachureGap=4;pointerEvents=0;" parent="1" vertex="1">
          <mxGeometry x="2900" y="700" width="120" height="60" as="geometry" />
        </mxCell>
        <mxCell id="nksuaNwJPS0nM7EoXHVq-95" value="" style="endArrow=none;html=1;startSize=14;endSize=14;sourcePerimeterSpacing=8;targetPerimeterSpacing=8;entryX=0.5;entryY=1;entryDx=0;entryDy=0;" parent="1" edge="1">
          <mxGeometry width="50" height="50" relative="1" as="geometry">
            <mxPoint x="2409.9999999999995" y="820" as="sourcePoint" />
            <mxPoint x="2409.9999999999995" y="760" as="targetPoint" />
          </mxGeometry>
        </mxCell>
        <mxCell id="nksuaNwJPS0nM7EoXHVq-96" value="" style="endArrow=none;html=1;startSize=14;endSize=14;sourcePerimeterSpacing=8;targetPerimeterSpacing=8;" parent="1" edge="1">
          <mxGeometry width="50" height="50" relative="1" as="geometry">
            <mxPoint x="2249.9999999999995" y="820" as="sourcePoint" />
            <mxPoint x="2579.9999999999995" y="820" as="targetPoint" />
          </mxGeometry>
        </mxCell>
        <mxCell id="nksuaNwJPS0nM7EoXHVq-97" value="" style="endArrow=classic;html=1;startSize=14;endSize=14;sourcePerimeterSpacing=8;targetPerimeterSpacing=8;" parent="1" edge="1">
          <mxGeometry width="50" height="50" relative="1" as="geometry">
            <mxPoint x="2249.9999999999995" y="820" as="sourcePoint" />
            <mxPoint x="2249.9999999999995" y="900" as="targetPoint" />
          </mxGeometry>
        </mxCell>
        <mxCell id="nksuaNwJPS0nM7EoXHVq-98" value="클래스별" style="rounded=0;whiteSpace=wrap;html=1;hachureGap=4;pointerEvents=0;" parent="1" vertex="1">
          <mxGeometry x="2190" y="900" width="120" height="60" as="geometry" />
        </mxCell>
        <mxCell id="nksuaNwJPS0nM7EoXHVq-99" value="" style="endArrow=classic;html=1;startSize=14;endSize=14;sourcePerimeterSpacing=8;targetPerimeterSpacing=8;" parent="1" edge="1">
          <mxGeometry width="50" height="50" relative="1" as="geometry">
            <mxPoint x="2579.9999999999995" y="820" as="sourcePoint" />
            <mxPoint x="2579.9999999999995" y="900" as="targetPoint" />
          </mxGeometry>
        </mxCell>
        <mxCell id="nksuaNwJPS0nM7EoXHVq-100" value="결제수단별" style="rounded=0;whiteSpace=wrap;html=1;hachureGap=4;pointerEvents=0;" parent="1" vertex="1">
          <mxGeometry x="2520" y="900" width="120" height="60" as="geometry" />
        </mxCell>
        <mxCell id="nksuaNwJPS0nM7EoXHVq-101" value="" style="endArrow=classic;html=1;startSize=14;endSize=14;sourcePerimeterSpacing=8;targetPerimeterSpacing=8;" parent="1" edge="1">
          <mxGeometry width="50" height="50" relative="1" as="geometry">
            <mxPoint x="2409.9999999999995" y="820" as="sourcePoint" />
            <mxPoint x="2409.9999999999995" y="900" as="targetPoint" />
          </mxGeometry>
        </mxCell>
        <mxCell id="nksuaNwJPS0nM7EoXHVq-102" value="날짜(년/월/일)별" style="rounded=0;whiteSpace=wrap;html=1;hachureGap=4;pointerEvents=0;" parent="1" vertex="1">
          <mxGeometry x="2350" y="900" width="120" height="60" as="geometry" />
        </mxCell>
        <mxCell id="nksuaNwJPS0nM7EoXHVq-103" value="" style="endArrow=none;html=1;startSize=14;endSize=14;sourcePerimeterSpacing=8;targetPerimeterSpacing=8;entryX=0.5;entryY=1;entryDx=0;entryDy=0;" parent="1" edge="1">
          <mxGeometry width="50" height="50" relative="1" as="geometry">
            <mxPoint x="2959.9999999999995" y="820" as="sourcePoint" />
            <mxPoint x="2959.9999999999995" y="760" as="targetPoint" />
          </mxGeometry>
        </mxCell>
        <mxCell id="nksuaNwJPS0nM7EoXHVq-104" value="" style="endArrow=none;html=1;startSize=14;endSize=14;sourcePerimeterSpacing=8;targetPerimeterSpacing=8;" parent="1" edge="1">
          <mxGeometry width="50" height="50" relative="1" as="geometry">
            <mxPoint x="2799.9999999999995" y="820" as="sourcePoint" />
            <mxPoint x="3129.9999999999995" y="820" as="targetPoint" />
          </mxGeometry>
        </mxCell>
        <mxCell id="nksuaNwJPS0nM7EoXHVq-105" value="" style="endArrow=classic;html=1;startSize=14;endSize=14;sourcePerimeterSpacing=8;targetPerimeterSpacing=8;" parent="1" edge="1">
          <mxGeometry width="50" height="50" relative="1" as="geometry">
            <mxPoint x="2799.9999999999995" y="820" as="sourcePoint" />
            <mxPoint x="2799.9999999999995" y="900" as="targetPoint" />
          </mxGeometry>
        </mxCell>
        <mxCell id="nksuaNwJPS0nM7EoXHVq-106" value="클래스별" style="rounded=0;whiteSpace=wrap;html=1;hachureGap=4;pointerEvents=0;" parent="1" vertex="1">
          <mxGeometry x="2740" y="900" width="120" height="60" as="geometry" />
        </mxCell>
        <mxCell id="nksuaNwJPS0nM7EoXHVq-107" value="" style="endArrow=classic;html=1;startSize=14;endSize=14;sourcePerimeterSpacing=8;targetPerimeterSpacing=8;" parent="1" edge="1">
          <mxGeometry width="50" height="50" relative="1" as="geometry">
            <mxPoint x="3129.9999999999995" y="820" as="sourcePoint" />
            <mxPoint x="3129.9999999999995" y="900" as="targetPoint" />
          </mxGeometry>
        </mxCell>
        <mxCell id="nksuaNwJPS0nM7EoXHVq-108" value="결제수단별" style="rounded=0;whiteSpace=wrap;html=1;hachureGap=4;pointerEvents=0;" parent="1" vertex="1">
          <mxGeometry x="3070" y="900" width="120" height="60" as="geometry" />
        </mxCell>
        <mxCell id="nksuaNwJPS0nM7EoXHVq-109" value="" style="endArrow=classic;html=1;startSize=14;endSize=14;sourcePerimeterSpacing=8;targetPerimeterSpacing=8;" parent="1" edge="1">
          <mxGeometry width="50" height="50" relative="1" as="geometry">
            <mxPoint x="2959.9999999999995" y="820" as="sourcePoint" />
            <mxPoint x="2959.9999999999995" y="900" as="targetPoint" />
          </mxGeometry>
        </mxCell>
        <mxCell id="nksuaNwJPS0nM7EoXHVq-110" value="날짜(년/월/일)별" style="rounded=0;whiteSpace=wrap;html=1;hachureGap=4;pointerEvents=0;" parent="1" vertex="1">
          <mxGeometry x="2900" y="900" width="120" height="60" as="geometry" />
        </mxCell>
      </root>
    </mxGraphModel>
  </diagram>
</mxfile>
